<svg width="200" height="200" viewBox="0 0 100 100" fill="none" xmlns="http://www.w3.org/2000/svg">
  <defs>
    <linearGradient id="primaryGrad" x1="0%" y1="0%" x2="100%" y2="100%">
      <stop offset="0%" style="stop-color:#38BDF8;stop-opacity:1" />
      <stop offset="100%" style="stop-color:#1D4ED8;stop-opacity:1" />
    </linearGradient>
    
    <filter id="neuralGlow" x="-20%" y="-20%" width="140%" height="140%">
      <feGaussianBlur stdDeviation="1.5" result="blur" />
      <feComposite in="SourceGraphic" in2="blur" operator="over" />
    </filter>

    <radialGradient id="glassGrad" cx="50%" cy="50%" r="50%">
      <stop offset="0%" style="stop-color:white;stop-opacity:0.2" />
      <stop offset="100%" style="stop-color:white;stop-opacity:0" />
    </radialGradient>
  </defs>

  <g opacity="0.4">
    <circle cx="50" cy="50" r="48" stroke="#38BDF8" stroke-width="0.2" stroke-dasharray="1 3" />
    <path d="M50 2L55 10M85 20L78 25M98 50L90 50M85 80L78 75M50 98L45 90M15 80L22 75M2 50L10 50M15 20L22 25" stroke="#22D3EE" stroke-width="0.3">
      <animateTransform attributeName="transform" type="rotate" from="0 50 50" to="360 50 50" dur="30s" repeatCount="indefinite" />
    </path>
  </g>

  <circle cx="50" cy="50" r="42" fill="#0F172A" stroke="url(#primaryGrad)" stroke-width="1.5" />
  <circle cx="50" cy="50" r="42" fill="url(#glassGrad)" />

  <g transform="translate(32, 35) scale(0.7)">
    <path d="M5 10H35V45H5V10Z" fill="#1E40AF" opacity="0.6" transform="skewY(-5)" />
    <path d="M10 5H40V40H10V5Z" fill="#2563EB" opacity="0.8" transform="skewY(-2)" />
    <path d="M15 0H45C47 0 48 1 48 3V38C48 40 47 41 45 41H15C13 41 12 40 12 38V3C12 1 13 0 15 0Z" fill="url(#primaryGrad)" />
    <path d="M30 12L22 30H26L28 26H34L36 30H40L32 12H30ZM30 18L32 23H28L30 18Z" fill="white" filter="url(#neuralGlow)" />
  </g>

  <ellipse cx="50" cy="55" rx="38" ry="12" stroke="#22D3EE" stroke-width="0.8" stroke-opacity="0.6" />
  <circle cx="88" cy="55" r="3" fill="#22D3EE" filter="url(#neuralGlow)">
    <animate attributeName="opacity" values="1;0.4;1" dur="2s" repeatCount="indefinite" />
    <animateTransform attributeName="transform" type="rotate" from="0 50 55" to="360 50 55" dur="4s" repeatCount="indefinite" />
  </circle>
</svg>